<svg width="131" height="34" viewBox="0 0 131 34" fill="none" xmlns="http://www.w3.org/2000/svg">
<path fill-rule="evenodd" clip-rule="evenodd" d="M27.565 7.79447C29.2188 10.2696 30.1015 13.1795 30.1015 16.1562C30.1015 20.1479 28.5158 23.9761 25.6932 26.7987C22.8707 29.6213 19.0424 31.207 15.0507 31.207C12.074 31.207 9.16408 30.3242 6.689 28.6704C4.21392 27.0166 2.28483 24.666 1.14568 21.9159C0.00652126 19.1657 -0.291534 16.1395 0.289203 13.22C0.869939 10.3004 2.30338 7.61862 4.40827 5.51373C6.51315 3.40885 9.19493 1.97541 12.1145 1.39467C15.034 0.813935 18.0603 1.11199 20.8104 2.25114C23.5606 3.3903 25.9112 5.31939 27.565 7.79447ZM15.476 25.6834C15.5816 25.1165 15.6851 24.5614 15.7885 24.0124H15.8037C16.9444 24.0069 18.0841 23.9434 19.2184 23.8223C20.088 23.7022 20.8938 23.2989 21.5111 22.6747C22.1283 22.0506 22.5227 21.2404 22.6332 20.3695C22.9982 18.5519 22.5343 17.5556 20.7851 16.3996C20.7632 16.3821 20.7514 16.3495 20.7352 16.3047C20.7232 16.2716 20.7088 16.2319 20.6862 16.1867C22.2757 15.5478 22.7853 14.2702 22.7168 12.6655C22.6484 11.0608 21.5532 10.2242 20.2527 9.62336C19.909 9.46397 19.5621 9.32415 19.1948 9.17612C19.0013 9.09814 18.8021 9.01788 18.5948 8.93129C18.7692 7.97186 18.9437 7.04305 19.1139 6.1365C19.1515 5.9364 19.1889 5.73738 19.226 5.53936L17.3095 5.18191C17.089 6.3227 16.8912 7.39503 16.6859 8.513L15.1648 8.23161C15.2623 7.71289 15.3582 7.19736 15.4532 6.68647C15.5658 6.08129 15.6771 5.48263 15.7885 4.89292L13.659 4.49744C13.5959 4.83463 13.5341 5.16435 13.4728 5.49124C13.3197 6.30713 13.17 7.10534 13.0126 7.95782L9.26319 7.22011C9.18954 7.59611 9.12379 7.9484 9.0589 8.29612C8.99648 8.63062 8.93484 8.96088 8.86772 9.30395C8.92984 9.31617 8.99033 9.32812 9.04944 9.33979C9.43172 9.4153 9.75623 9.47941 10.0922 9.5321C10.2618 9.53514 10.4282 9.57866 10.5776 9.65905C10.727 9.73944 10.855 9.85437 10.951 9.99426C11.047 10.1341 11.1082 10.2949 11.1294 10.4633C11.1507 10.6316 11.1314 10.8025 11.0732 10.9619C10.8581 12.132 10.6388 13.302 10.4195 14.4721C10.1271 16.0323 9.83468 17.5925 9.55219 19.1527C9.43811 19.7839 9.11869 19.936 8.52548 19.86C7.17175 19.6699 7.16415 19.6851 6.70023 20.9399C6.62781 21.1282 6.57071 21.3257 6.50364 21.5577C6.46506 21.6912 6.42319 21.836 6.37321 21.9971L10.2899 22.7576C10.0541 23.982 9.84879 25.0848 9.64345 26.2104L11.7653 26.6362L12.3813 23.3432L13.9024 23.6246C13.8383 23.9656 13.7749 24.3011 13.7122 24.6329C13.5665 25.4039 13.4246 26.1551 13.2864 26.91L15.1801 27.2675C15.2816 26.727 15.3797 26.2003 15.476 25.6834ZM13.6955 16.4533C13.5516 17.2336 13.4152 17.9631 13.2787 18.6926C13.1419 19.4246 13.005 20.1566 12.8605 20.9399C13.2579 20.9696 13.6492 21.0069 14.0353 21.0436C14.9348 21.1292 15.8064 21.2122 16.6631 21.1909C17.1106 21.2291 17.5563 21.1002 17.9144 20.8292C18.2725 20.5581 18.5176 20.1641 18.6024 19.7231C18.6992 19.2685 18.6226 18.7941 18.3876 18.3931C18.1526 17.9921 17.7762 17.6934 17.3323 17.5556C16.406 17.1887 15.4368 16.9264 14.4512 16.6597C14.2002 16.5918 13.9482 16.5236 13.6955 16.4533ZM14.9407 14.7446C14.6309 14.7168 14.3157 14.6885 13.9936 14.6656H13.986C14.2598 13.213 14.488 11.9962 14.7466 10.5892C15.7529 10.8386 16.7455 11.1407 17.7202 11.4942C18.1173 11.6302 18.4502 11.908 18.6551 12.2743C18.8601 12.6406 18.9225 13.0697 18.8306 13.4792C18.7547 13.8901 18.5293 14.2582 18.1977 14.5125C17.8662 14.7667 17.4522 14.889 17.0357 14.8558C16.3546 14.8717 15.6624 14.8095 14.9407 14.7446Z" fill="#002859"/>
<path d="M31.7594 7.60043C31.7594 5.97292 33.0751 4.71045 35.0753 4.71045C37.0755 4.71045 38.3912 5.88926 38.3912 7.51678C38.3912 9.1443 37.0755 10.4904 35.0753 10.4904C33.0751 10.4904 31.7594 9.23556 31.7594 7.60043V7.60043ZM32.3602 12.2092H37.7903V27.7315H32.3602V12.2092Z" fill="#002859"/>
<path d="M51.2896 27.0773C50.1265 27.714 48.8118 28.0217 47.487 27.9671C43.5094 27.9671 41.1975 26.0201 41.1975 22.0426V16.8406H38.9159V12.7795H41.1975V8.71826H46.6276V12.749H50.202V16.8102H46.658V21.959C46.629 22.1862 46.65 22.4171 46.7195 22.6354C46.7889 22.8537 46.9052 23.0542 47.0602 23.223C47.2152 23.3917 47.4051 23.5246 47.6167 23.6123C47.8284 23.7001 48.0566 23.7406 48.2855 23.731C48.874 23.7355 49.4508 23.5662 49.9435 23.2442L51.2896 27.0773Z" fill="#002859"/>
<path d="M69.1695 18.8408V27.7313H63.7317V19.7306C63.7317 17.4947 62.7583 16.5516 61.184 16.5516C59.4424 16.5516 58.0963 17.6392 58.0963 20.2173V27.7313H52.6661V12.209H57.8073V13.8974C58.4507 13.2536 59.2194 12.7487 60.0657 12.4138C60.9121 12.0789 61.8181 11.9212 62.7279 11.9505C66.3631 11.9505 69.1391 14.0343 69.1391 18.8408" fill="#002859"/>
<path d="M71.1089 19.9286C71.1089 15.2666 74.7974 11.9507 79.8625 11.9507C84.9276 11.9507 88.6161 15.2666 88.6161 19.9286C88.6161 24.5906 84.9808 27.9673 79.8625 27.9673C74.7442 27.9673 71.1089 24.621 71.1089 19.9286V19.9286ZM83.1251 19.9286C83.1251 17.5862 81.7182 16.2705 79.8625 16.2705C78.0068 16.2705 76.5999 17.5862 76.5999 19.9286C76.5999 22.271 78.0296 23.6475 79.8625 23.6475C81.6954 23.6475 83.1251 22.3014 83.1251 19.9286Z" fill="#002859"/>
<path d="M106.314 12.2092L99.9099 27.7087H94.3049L87.9241 12.2092H93.5063L97.2253 21.6701L101.142 12.2092H106.314Z" fill="#002859"/>
<path d="M105.599 19.9286C105.599 15.2666 109.287 11.9507 114.352 11.9507C119.417 11.9507 123.106 15.2666 123.106 19.9286C123.106 24.5906 119.47 27.9673 114.352 27.9673C109.234 27.9673 105.599 24.621 105.599 19.9286V19.9286ZM117.615 19.9286C117.615 17.5862 116.208 16.2705 114.352 16.2705C112.496 16.2705 111.089 17.5862 111.089 19.9286C111.089 22.271 112.519 23.6475 114.352 23.6475C116.185 23.6475 117.615 22.3014 117.615 19.9286Z" fill="#002859"/>
<path d="M131 24.5828C131 23.9345 130.808 23.3007 130.448 22.7617C130.087 22.2227 129.576 21.8025 128.977 21.5544C128.378 21.3064 127.719 21.2414 127.083 21.3679C126.447 21.4944 125.863 21.8066 125.404 22.265C124.946 22.7234 124.634 23.3075 124.507 23.9433C124.381 24.5791 124.446 25.2382 124.694 25.8372C124.942 26.4361 125.362 26.948 125.901 27.3082C126.44 27.6684 127.074 27.8606 127.722 27.8606C128.592 27.8606 129.425 27.5153 130.04 26.9006C130.655 26.2859 131 25.4521 131 24.5828" fill="#1ED6EB"/>
</svg>
