<svg xmlns="http://www.w3.org/2000/svg" id="Layer_1" data-name="Layer 1" viewBox="0 0 320.5 87"><defs><style>      .cls-1 {        fill: #fff;        stroke-width: 0px;      }    </style></defs><path class="cls-1" d="m43.7,35.6h11.3s5.1-.1,8.8-1.7c1.8-.8,4-1.9,6.4-3.6.3-.6,0-1.1-.3-1.3-.4-.2-.9-.3-1.1-.3-11-1.1-19.3.7-21.2,1.4-2.1.7-3.2,1.4-3.5,1.6-1.6,1.1-1.8,2.2-1.4,3.1.6.8,1,.8,1,.8Z"></path><path class="cls-1" d="m126.1,4.7c-11-8-26.5-5.5-34.5,5.4l-2.4,3.3c-.5.5-.7.9-.7.9-.2.3-.4.6-.6.9l-2.7,3.7c-.3.3-.5.7-.7,1.1-.7,1-1.5,1.9-2.2,2.8-7.7,9.3-14.3,13.5-18.7,15.3-3.2,1.4-7.7,1.5-7.7,1.5h-25.2c-14-.3-10.9,10.2-5,10.9,2.3.5,3.9.6,4.9,1.1,2.4,1.1,1.2,2.6,1.1,2.9-.4.6-1.7.9-2.8,1-.9.1-9,.9-13.8,1-9.8.2-14.3,3.2-14.9,6.2-.7,3.6,4,7.3,12.1,7.4l27.8.8s1.4,0,2.9.1c6,.3,5.5,5.7,2.5,6.9-.5.3-1.1.6-1.7.8-1.3.6-2.6,1.2-3,2.3-.5,1.2-.9,5.2,5,5.8,0,0,22.9.8,36.2-3.7,16-5.3,28.3-16.6,36.7-27,1.4-1.7,13.1-17.1,13.1-17.1,8-11,5.5-26.5-5.4-34.5Zm-24.8,44.3c-1,1-3.5,1.5-5.7,1.5s-1,0-1.4,0c-5.5-.7-8.7-4.1-9.1-9.6-.2-2.6,1-5.9,2.2-7,.6-.6,1.1-.6,1.5-.4,1,.4,1.3,2.1,1.4,3.4.9,5.7,4.3,9.4,9.4,10.5.4,0,.7,0,1,.1.6,0,1.1.1,1.2.5.1.4-.2.8-.5,1.1Zm.2-12.7c-1.9,0-3.4-1.5-3.4-3.4s1.5-3.4,3.4-3.4,3.4,1.5,3.4,3.4-1.5,3.4-3.4,3.4Zm20.8,0c-1.9,0-3.4-1.5-3.4-3.4s1.5-3.4,3.4-3.4,3.4,1.5,3.4,3.4-1.5,3.4-3.4,3.4Z"></path><g><path class="cls-1" d="m141.2,79.7v-26.3h8.4v3.6h.1c1.7-2.9,4.3-4.4,7.6-4.4s6.5,1.4,7.7,4.3c2.1-2.8,4.9-4.3,8.3-4.3s6.4,1.3,7.8,3.8c1,1.7,1.5,4.2,1.5,7.5v15.7h-8.7v-15.4c0-3-1.2-4.5-3.6-4.5s-2.8.6-3.4,1.9c-.4,1-.7,2.7-.7,5.2v12.9h-8.7v-14.9c0-3.3-1.1-5-3.3-5s-2.7.5-3.4,1.6c-.7,1.1-1,2.9-1,5.5v12.8h-8.7Z"></path><path class="cls-1" d="m214.6,68.7h-19.5c0,1.8.6,3.3,1.7,4.4,1,1.1,2.5,1.6,4.3,1.6s4.1-1,5-2.9h8.1c-.8,2.9-2.4,5.1-5,6.6-2.3,1.4-5.1,2.1-8.2,2.1s-7.9-1.2-10.5-3.7c-2.7-2.5-4-5.9-4-10.3s1.4-7.3,4.2-9.9c2.7-2.6,6.1-3.9,10.1-3.9s8.1,1.6,10.6,4.7c2.4,2.9,3.4,6.7,3.2,11.3Zm-19.5-4.8h10.8c0-1.5-.6-2.8-1.6-3.8-1-1-2.2-1.6-3.6-1.6s-2.7.5-3.7,1.5c-1,1-1.6,2.3-1.9,3.9Z"></path><path class="cls-1" d="m218.4,79.7v-36.2h8.7v36.2h-8.7Z"></path><path class="cls-1" d="m231.1,66.6c0-4,1.3-7.3,3.9-10,2.6-2.6,6-4,10.1-4s7.4,1.3,10.1,4c2.6,2.7,3.9,6,3.9,10s-1.3,7.3-3.9,9.9c-2.6,2.6-6,3.9-10.1,3.9s-7.4-1.3-10.1-3.9c-2.6-2.6-3.9-5.9-3.9-9.9Zm8.7,0c0,2,.4,3.6,1.1,4.9.9,1.6,2.3,2.4,4.1,2.4s3.2-.8,4.2-2.4c.7-1.3,1.1-3,1.1-4.9s-.4-3.6-1.1-4.9c-1-1.6-2.4-2.4-4.2-2.4s-3.2.8-4.1,2.4c-.8,1.3-1.1,2.9-1.1,4.9Z"></path><path class="cls-1" d="m262.7,79.7v-26.3h8.4v3.6h.1c.8-1.3,2-2.4,3.5-3.2,1.6-.8,3.2-1.2,4.8-1.2,6.4,0,9.6,3.4,9.6,10.2v16.9h-8.7v-12.7c0-2.6-.1-4.3-.4-5-.5-1.5-1.9-2.3-3.9-2.3s-2.7.6-3.6,1.7c-.8,1-1.1,2.3-1.1,3.9v14.3h-8.7Z"></path><path class="cls-1" d="m294.1,79.7v-26.3h8.4v3.6h.1c.8-1.3,2-2.4,3.5-3.2,1.6-.8,3.2-1.2,4.8-1.2,6.4,0,9.6,3.4,9.6,10.2v16.9h-8.7v-12.7c0-2.6-.1-4.3-.4-5-.5-1.5-1.9-2.3-3.9-2.3s-2.7.6-3.6,1.7c-.8,1-1.1,2.3-1.1,3.9v14.3h-8.7Z"></path></g></svg>