<svg id="Capa_1" data-name="Capa 1" xmlns="http://www.w3.org/2000/svg" viewBox="0 0 2116.77 719.14" fill="#fff">
  <title>Logo en negro</title>
  <path
    d="M361.48,447.33Q358,467.66,345,518.4L299.22,693.87H262.69l-90.46-295.3h36L259,571.82q12.12,41.7,20.65,75h.88q4.39-20.54,9.55-40t9.11-34.65l44.8-173.69h36l44.58,173.69q16.38,62.67,18.56,74.6h.9q7.65-30.89,20.68-75l50.79-173.25h36l-90.55,295.3H424.38L378.79,518.4q-12.5-49-16.43-71.07Z"
    transform="translate(-172.23 -205)"></path>
  <path
    d="M1502.66,693.87h-34.21V559q0-13.68-3-23.29a41.11,41.11,0,0,0-8.61-15.78,33.64,33.64,0,0,0-13.46-9.05,50.79,50.79,0,0,0-17.55-2.87,59.62,59.62,0,0,0-33.32,9.82q-15,9.84-26.93,27v149h-34.2V484.19h26.47l6.63,29.14h.66a121.58,121.58,0,0,1,12.47-13.57,80.63,80.63,0,0,1,15-11,75.71,75.71,0,0,1,18.2-7.39,83.67,83.67,0,0,1,21.63-2.65q23.4,0,38.85,11.25t23.83,30.69h.89q13.92-19.65,31.84-30.8t41.78-11.14a96.88,96.88,0,0,1,23.42,3.09,59.46,59.46,0,0,1,22.77,11.36q10.37,8.28,17.23,22.84t6.86,37.53V693.87h-34.21V559q0-13.68-3-23.29a41.25,41.25,0,0,0-8.61-15.78,33.64,33.64,0,0,0-13.46-9.05,50.79,50.79,0,0,0-17.55-2.87,60.12,60.12,0,0,0-33.43,9.82q-15.12,9.84-27,27Z"
    transform="translate(-172.23 -205)"></path>
  <path
    d="M1894,585.5q0,29.36-8,50.76t-21,35.42a83.37,83.37,0,0,1-29.8,20.85,90.56,90.56,0,0,1-34.65,6.85,75.12,75.12,0,0,1-23.73-3.42,74,74,0,0,1-17.43-8.16,58,58,0,0,1-11.48-9.6,62.13,62.13,0,0,1-6.07-7.73h-.66l-7.28,23.4h-25.82V374.29h34.21V503.83h.66a80.31,80.31,0,0,1,26.26-18.53q15-6.62,34.21-6.62a101.19,101.19,0,0,1,19.09,2,82.9,82.9,0,0,1,20.31,6.85,89.85,89.85,0,0,1,19.3,12.79,79.51,79.51,0,0,1,16.34,19.76,106.46,106.46,0,0,1,11.26,28Q1894,564.32,1894,585.5Zm-35.76,2.64q0-24.92-5.84-40.49t-15-24.28a50.84,50.84,0,0,0-19.54-12,68,68,0,0,0-20.74-3.31,69,69,0,0,0-29.9,6.63,90,90,0,0,0-24.83,17.21V641.56a81.07,81.07,0,0,0,8.05,9.15,66.9,66.9,0,0,0,11.81,9.28,76.6,76.6,0,0,0,15.34,7.28,55.89,55.89,0,0,0,18.64,3q15.24,0,26.82-6a54,54,0,0,0,19.42-16.89,78.37,78.37,0,0,0,11.81-26A130.42,130.42,0,0,0,1858.21,588.14Z"
    transform="translate(-172.23 -205)"></path>
  <path
    d="M2070.76,670.69h-.89a67.43,67.43,0,0,1-10.59,10.48,75.86,75.86,0,0,1-14.79,9.27,90.81,90.81,0,0,1-18.32,6.51,88.45,88.45,0,0,1-21.19,2.43,82.49,82.49,0,0,1-27.91-4.52,60.72,60.72,0,0,1-21.85-13.24A59.93,59.93,0,0,1,1941,660.31a75.35,75.35,0,0,1-5.08-28.46,67.06,67.06,0,0,1,5.63-28,59.41,59.41,0,0,1,15.78-21,71,71,0,0,1,24.39-13.24,101.19,101.19,0,0,1,31.45-4.63,175.3,175.3,0,0,1,30.24,2.86,158.8,158.8,0,0,1,24.72,6.62h.88V559.9a92.91,92.91,0,0,0-1.11-15.23,38.75,38.75,0,0,0-3.75-11.7q-5.74-10.59-18.32-17.54t-34-6.95a144.12,144.12,0,0,0-29.91,3,188.83,188.83,0,0,0-27.92,8.28V491a89.83,89.83,0,0,1,12.47-5,146.13,146.13,0,0,1,15.12-4,165,165,0,0,1,16.77-2.54q8.84-.87,17.66-.88,31.77,0,52,11.25t29,29.8a60.4,60.4,0,0,1,4.74,15.56,112.13,112.13,0,0,1,1.44,18.65V693.87h-28.7ZM2069,601.83q-9.45-2.66-22.42-5.08A170.48,170.48,0,0,0,2018,594.1q-21.76,0-34.06,9.28t-12.31,28.47a43.26,43.26,0,0,0,3.09,17,32.5,32.5,0,0,0,8.46,12,34.87,34.87,0,0,0,12.73,7.06,52,52,0,0,0,15.72,2.32,63.13,63.13,0,0,0,20.43-3.2,85.73,85.73,0,0,0,16.8-7.62,92.08,92.08,0,0,0,12.53-8.83c3.44-2.93,6-5.22,7.58-6.84Z"
    transform="translate(-172.23 -205)"></path>
  <path
    d="M2280,694.3a69.09,69.09,0,0,1-13.46,3.31,144.85,144.85,0,0,1-21.63,1.77q-16.56,0-28.69-4.08a54,54,0,0,1-20.2-11.7,47.48,47.48,0,0,1-12-18.43,69.51,69.51,0,0,1-4-24.06V513.55h-40.39V484.19H2180V426.81h34.21v57.38h62.68v29.36h-62.68V635.82a41.67,41.67,0,0,0,2.1,13.47,27.38,27.38,0,0,0,6.62,10.7,30.76,30.76,0,0,0,11.59,7.06,50.21,50.21,0,0,0,17,2.54,101.86,101.86,0,0,0,14.46-1.1,114.74,114.74,0,0,0,14-2.88Z"
    transform="translate(-172.23 -205)"></path>
  <path
    d="M1350.41,810.69q-7.68,4.11-19.09,4.11-14.76,0-23.63-9.61t-8.87-25.2q0-16.79,10-27.12t25.31-10.33q9.83,0,16.3,2.87v8.73A32.69,32.69,0,0,0,1334,750q-11.91,0-19.31,8t-7.4,21.51q0,12.76,6.91,20.35t18.16,7.59a33.88,33.88,0,0,0,18-4.68Z"
    transform="translate(-172.23 -205)"></path>
  <path
    d="M1394.12,814.8q-14.7,0-23.54-9.81t-8.85-25.49q0-16.89,9-26.92t24.55-10q14.3,0,23.06,9.75t8.76,25.5q0,17.13-9,27.06T1394.12,814.8Zm.58-64.85A22.17,22.17,0,0,0,1377,757.9q-6.79,7.94-6.8,20.86t6.63,20.81a21.58,21.58,0,0,0,17.28,7.87q11.37,0,17.94-7.52t6.55-21c0-9.21-2.11-16.36-6.36-21.4S1402.16,750,1394.7,750Z"
    transform="translate(-172.23 -205)"></path>
  <path
    d="M1498.21,813.62h-9.93L1452.7,757.9a23.5,23.5,0,0,1-2.22-4.39h-.29a72.56,72.56,0,0,1,.38,9.6v50.51h-8.1V743.7H1453l34.61,54.86c1.45,2.28,2.38,3.83,2.8,4.68h.19a73.1,73.1,0,0,1-.49-10.29V743.7h8.11Z"
    transform="translate(-172.23 -205)"></path>
  <path
    d="M1514.88,810.8v-9.65a18,18,0,0,0,3.92,2.63,32.26,32.26,0,0,0,4.82,2,36.06,36.06,0,0,0,5.1,1.24,28.28,28.28,0,0,0,4.72.45c5,0,8.7-1,11.16-2.82a9.48,9.48,0,0,0,3.69-8.06,9.6,9.6,0,0,0-1.23-4.92,13.71,13.71,0,0,0-3.41-3.83,32.13,32.13,0,0,0-5.12-3.31c-2-1.06-4.11-2.17-6.39-3.35s-4.66-2.48-6.75-3.75a28.88,28.88,0,0,1-5.45-4.2,17.29,17.29,0,0,1-3.64-5.19,16.27,16.27,0,0,1-1.32-6.8,16.06,16.06,0,0,1,2.07-8.32,17.88,17.88,0,0,1,5.45-5.83,24.93,24.93,0,0,1,7.68-3.41,35.73,35.73,0,0,1,8.8-1.11q10.23,0,14.9,2.48v9.22c-4.09-2.87-9.31-4.29-15.71-4.29a25.23,25.23,0,0,0-5.31.57,14.6,14.6,0,0,0-4.72,1.82,10.64,10.64,0,0,0-3.38,3.26,8.83,8.83,0,0,0-1.29,4.88,10.34,10.34,0,0,0,1,4.64,11.07,11.07,0,0,0,2.92,3.54,27.46,27.46,0,0,0,4.69,3.13c1.86,1,4,2.11,6.39,3.32s4.82,2.54,7,3.9a32.1,32.1,0,0,1,5.83,4.54,20.36,20.36,0,0,1,4,5.5,15.75,15.75,0,0,1,1.46,6.92,17.69,17.69,0,0,1-2,8.75,16.43,16.43,0,0,1-5.4,5.83,23.4,23.4,0,0,1-7.83,3.24,41.55,41.55,0,0,1-9.35,1,35.14,35.14,0,0,1-4-.28c-1.61-.17-3.24-.44-4.92-.78a37.64,37.64,0,0,1-4.74-1.27A14,14,0,0,1,1514.88,810.8Z"
    transform="translate(-172.23 -205)"></path>
  <path
    d="M1622.92,785.34q0,29.45-26.28,29.46-25.19,0-25.17-28.32V743.7h8.1v42.24q0,21.48,17.93,21.5,17.31,0,17.31-20.78v-43h8.11Z"
    transform="translate(-172.23 -205)"></path>
  <path d="M1677.82,813.62H1642V743.7h8.1v62.51h27.77Z" transform="translate(-172.23 -205)"></path>
  <path d="M1731.09,751.13h-20v62.49H1703V751.13h-19.91V743.7h48Z" transform="translate(-172.23 -205)"></path>
  <path d="M1770.92,743.7v7h-6.74V806.6h6.74v7h-21.59v-7h6.75V750.72h-6.75v-7Z" transform="translate(-172.23 -205)">
  </path>
  <path
    d="M1839.86,813.62h-9.92l-35.58-55.72a23.5,23.5,0,0,1-2.22-4.39h-.3a70.17,70.17,0,0,1,.39,9.6v50.51h-8.1V743.7h10.52l34.61,54.86c1.45,2.28,2.38,3.83,2.8,4.68h.19a74.71,74.71,0,0,1-.49-10.29V743.7h8.1Z"
    transform="translate(-172.23 -205)"></path>
  <path
    d="M1911.45,808.85a45.89,45.89,0,0,1-23.14,5.95q-14.79,0-23.94-9.65t-9.13-25.55q0-16.25,10.15-26.65t25.73-10.41c7.51,0,13.84,1.22,18.94,3.7v9.07q-8.38-5.37-19.87-5.36t-19,8.1q-7.41,8.09-7.42,21,0,13.28,6.9,20.84t18.7,7.59a28.65,28.65,0,0,0,14-3.27V784.56h-15.13v-7.41h23.23Z"
    transform="translate(-172.23 -205)"></path>
  <path d="M1953.48,789h-26.31v-6.29h26.31Z" transform="translate(-172.23 -205)"></path>
  <path
    d="M2022.22,808.85a45.89,45.89,0,0,1-23.14,5.95q-14.79,0-23.94-9.65T1966,779.6q0-16.25,10.15-26.65t25.72-10.41c7.52,0,13.85,1.22,18.95,3.7v9.07q-8.4-5.37-19.87-5.36t-19,8.1q-7.43,8.09-7.42,21,0,13.28,6.89,20.84c4.6,5.06,10.82,7.59,18.71,7.59a28.65,28.65,0,0,0,14-3.27V784.56H1999v-7.41h23.23Z"
    transform="translate(-172.23 -205)"></path>
  <path
    d="M2089.61,813.62H2080L2068.4,794a42.4,42.4,0,0,0-3.08-4.64,18.07,18.07,0,0,0-3.06-3.15,10.38,10.38,0,0,0-3.38-1.78,13.18,13.18,0,0,0-4.07-.56h-6.66v29.73h-8.1V743.7h20.64a29.35,29.35,0,0,1,8.37,1.15,19.21,19.21,0,0,1,6.64,3.48,16.22,16.22,0,0,1,4.42,5.83,19.61,19.61,0,0,1,1.58,8.18,19.89,19.89,0,0,1-1.07,6.69,17.74,17.74,0,0,1-3.08,5.44,19.56,19.56,0,0,1-4.83,4.08,24.32,24.32,0,0,1-6.34,2.6v.2a14.24,14.24,0,0,1,3,1.78,17.49,17.49,0,0,1,2.44,2.37,34.27,34.27,0,0,1,2.29,3.08q1.13,1.74,2.52,4Zm-41.46-62.49v25.34h11a16.44,16.44,0,0,0,5.62-.93,12.91,12.91,0,0,0,4.47-2.65,12.17,12.17,0,0,0,2.94-4.24,14.5,14.5,0,0,0,1-5.64,11.07,11.07,0,0,0-3.58-8.76c-2.4-2.09-5.87-3.12-10.39-3.12Z"
    transform="translate(-172.23 -205)"></path>
  <path
    d="M2128.76,814.8q-14.7,0-23.55-9.81t-8.85-25.49q0-16.89,9-26.92t24.54-10q14.31,0,23.06,9.75t8.75,25.5q0,17.13-9,27.06T2128.76,814.8Zm.58-64.85a22.18,22.18,0,0,0-17.7,7.95q-6.79,7.94-6.79,20.86t6.62,20.81a21.6,21.6,0,0,0,17.29,7.87q11.37,0,17.93-7.52t6.56-21c0-9.21-2.12-16.36-6.36-21.4S2136.79,750,2129.34,750Z"
    transform="translate(-172.23 -205)"></path>
  <path
    d="M2227.67,785.34q0,29.45-26.27,29.46-25.16,0-25.17-28.32V743.7h8.11v42.24q0,21.48,17.93,21.5,17.3,0,17.31-20.78v-43h8.09Z"
    transform="translate(-172.23 -205)"></path>
  <path
    d="M2254.81,787.21v26.41h-8.1V743.7h19q11.07,0,17.19,5.47t6.1,15.4a21.27,21.27,0,0,1-6.79,16.28c-4.52,4.23-10.6,6.36-18.29,6.36Zm0-36.08v28.65h8.48c5.6,0,9.86-1.28,12.81-3.87s4.41-6.22,4.41-10.95q0-13.85-16.2-13.83Z"
    transform="translate(-172.23 -205)"></path>
  <path
    d="M759.12,693.87q-27.36,0-49.08-9.12A105.06,105.06,0,0,1,673,659a113.68,113.68,0,0,1-23.51-40q-8.18-23.29-8.17-51.59,0-30.74,8.65-55t24.6-41.16A104.85,104.85,0,0,1,713,445.47q22.56-8.88,50.4-8.88,26.64,0,48,8.76a97.87,97.87,0,0,1,36.24,25.33q14.88,16.54,22.8,40.31t7.92,54q0,28.8-8.28,52.44a118.65,118.65,0,0,1-23.64,40.68A104.77,104.77,0,0,1,809,684.51Q787,693.89,759.12,693.87Zm2.4-241.94c-93.36,3-100.42,81.42-99.85,115,1.77,105.65,85.93,106.21,99.38,106.21,13.75,0,92.86-7.71,97-102C862.53,467.76,788.86,451.05,761.52,451.93Z"
    transform="translate(-172.23 -205)"></path>
  <path
    d="M1074,693.87q27.38,0,49.09-9.12A105.15,105.15,0,0,0,1160.2,659a113.68,113.68,0,0,0,23.51-40q8.18-23.29,8.16-51.59,0-30.74-8.63-55t-24.61-41.16a104.85,104.85,0,0,0-38.51-25.8q-22.56-8.88-50.4-8.88-26.65,0-48,8.76a98,98,0,0,0-36.24,25.33q-14.87,16.54-22.8,40.31t-7.92,54q0,28.8,8.28,52.44a118.65,118.65,0,0,0,23.64,40.68,104.77,104.77,0,0,0,37.44,26.4Q1046.2,693.89,1074,693.87Zm-2.39-241.94c93.36,3,100.42,81.42,99.86,115-1.78,105.65-86,106.21-99.39,106.21-13.75,0-92.86-7.71-97-102C970.63,467.76,1044.29,451.05,1071.64,451.93Z"
    transform="translate(-172.23 -205)"></path>
  <path
    d="M972.42,753.81v-.47l0-.93c0-1.26,0-2.52-.14-3.77a31.42,31.42,0,0,0-1.89-7.55,29.72,29.72,0,0,0-9.07-12.28c-7.73-6.08-16-8.64-22.84-10.22a113.07,113.07,0,0,0-16.66-2.44l-4.39-.29v-.11l-.83,0-.83,0v.11l-4.39.29a113.07,113.07,0,0,0-16.66,2.44c-6.8,1.58-15.11,4.14-22.84,10.22a29.64,29.64,0,0,0-9.07,12.28,31.92,31.92,0,0,0-1.9,7.55c-.1,1.25-.09,2.51-.13,3.77l0,.93v.82l0,.59v0l.26,1.59.55,3.19c.26,1.13.85,2.56,1.29,3.81.86,2.72,2.32,4.6,3.61,6.65a50,50,0,0,0,4.53,5.3c1.72,1.45,3.35,3,5.08,4.24a85,85,0,0,0,20.19,10.49,127.74,127.74,0,0,0,15.1,4.61c2,.47,3.47.79,4.47,1l.06.26.66-.12.66.12.06-.26c1-.2,2.49-.52,4.47-1a128.37,128.37,0,0,0,15.11-4.61,85.3,85.3,0,0,0,20.18-10.49c1.74-1.27,3.36-2.79,5.07-4.24a50.11,50.11,0,0,0,4.54-5.3,27.8,27.8,0,0,0,3.61-6.65c.44-1.25,1-2.68,1.3-3.81l.53-3.19.28-1.59v0l0-.59v-.35Zm-10,4.75a21.52,21.52,0,0,1-.61,2.32,18.74,18.74,0,0,1-1.94,4.8,47.09,47.09,0,0,1-3.1,4.66c-1.32,1.36-2.53,2.83-3.92,4.11a79.68,79.68,0,0,1-17.6,11.91,126,126,0,0,1-14.12,6.17c-2.11.78-3.61,1.28-4.53,1.57-.92-.29-2.42-.79-4.54-1.57a126.85,126.85,0,0,1-14.12-6.17,79.86,79.86,0,0,1-17.59-11.91c-1.39-1.28-2.6-2.75-3.92-4.11a47.09,47.09,0,0,1-3.1-4.66,18.74,18.74,0,0,1-1.94-4.8,21.52,21.52,0,0,1-.61-2.32l-.18-3.23-.08-1.62v0c0,.2,0,.57,0,.49l0-.07,0-.18,0-.33.1-.68c.15-.88.23-1.77.4-2.63a20.92,20.92,0,0,1,1.8-4.64,18,18,0,0,1,6.42-6.75c5.47-3.33,12.14-4.78,18-5.38a99.21,99.21,0,0,1,14.35-.4l4.09.2v.09l.84,0,.84,0v-.09l4.09-.2a99.18,99.18,0,0,1,14.35.4c5.82.6,12.48,2,17.95,5.38a17.94,17.94,0,0,1,6.42,6.75,20.46,20.46,0,0,1,1.81,4.64c.17.86.25,1.75.39,2.63l.1.68.06.33,0,.18,0,.07c0,.07,0-.17,0-.37l-.08,1.54Z"
    transform="translate(-172.23 -205)"></path>
  <path
    d="M1296.84,607.57a346.38,346.38,0,0,0-16.4-73.06,437.2,437.2,0,0,0-25.67-61.24c-9.18-18.32-18.79-34.39-27.51-48.45l-12.84-19.27c-1.3-1.91-2.57-3.66-3.84-5.45,9.55-28.37,18-57.1,24.82-86.38a450.82,450.82,0,0,0,8.41-45.9,201.08,201.08,0,0,0,1.62-23.7,95.87,95.87,0,0,0-.62-12.24,64.08,64.08,0,0,0-2.64-12.69l-.58-1.89-1.9-1.32h0c-8.11-5.92-17.08-8.17-25.62-9.58a138.27,138.27,0,0,0-25.52-1.29,255.54,255.54,0,0,0-49.42,7,272.66,272.66,0,0,0-47.63,15.91,160.8,160.8,0,0,0-23.06,12.49,91.39,91.39,0,0,0-11.2,8.66,66.29,66.29,0,0,0-5.43,5.53,57.53,57.53,0,0,0-3.92,5.21c-5.7-2.58-11.62-4.74-17.56-7-6.84-2.52-13.92-4.27-20.79-6.41-6.94-1.81-13.89-3.18-20.57-4.72-6.73-1.29-13.33-1.93-19.55-2.85s-12.17-1-17.63-1.46c-5.47-.29-10.5-.77-14.95-.51l-11.52.29-8.73.3-8.73-.3L896.33,237c-4.45-.26-9.48.22-15,.51-5.46.47-11.42.4-17.64,1.46s-12.82,1.56-19.54,2.85c-6.68,1.54-13.63,2.91-20.58,4.72-6.86,2.14-13.94,3.89-20.78,6.41-5.94,2.22-11.87,4.38-17.56,7a57.57,57.57,0,0,0-3.93-5.21,67.73,67.73,0,0,0-5.41-5.53,91.55,91.55,0,0,0-11.22-8.66,160.17,160.17,0,0,0-23.05-12.49A272.94,272.94,0,0,0,694,212.14a255.54,255.54,0,0,0-49.42-7,138.27,138.27,0,0,0-25.52,1.29c-8.54,1.41-17.51,3.66-25.61,9.58h0l-1.89,1.32-.59,1.89a62.72,62.72,0,0,0-2.65,12.69,97.7,97.7,0,0,0-.61,12.24,199,199,0,0,0,1.62,23.7,453.58,453.58,0,0,0,8.41,45.9c6.83,29.28,15.27,58,24.82,86.39-1.28,1.78-2.54,3.53-3.84,5.44q-5.94,8.93-12.85,19.27c-8.71,14.06-18.32,30.13-27.51,48.45a436,436,0,0,0-25.66,61.24,346.38,346.38,0,0,0-16.4,73.06c-2.89,26-3,53.61,2.25,81.08a254,254,0,0,0,28.49,79.62c6.78,12.58,15.16,24.18,24,35.25a265,265,0,0,0,29,30.63,278.24,278.24,0,0,0,32.58,25.6,271.32,271.32,0,0,0,142.49,48.14,216.94,216.94,0,0,0,33.32-1.74c3.88-.57,7.67-1.27,11.4-2l1.71,1.06c1.83,1,3.8,2,5.84,3s4.16,2.15,6.43,3.12,4.68,1.85,7.12,2.83c4.86,2,10.24,3.42,15.75,5.07,5.62,1.15,11.37,2.78,17.4,3.37a180,180,0,0,0,18.26,1.56c3.07.08,6.15-.13,9.21-.18a73.06,73.06,0,0,0,9.13-.64,128.29,128.29,0,0,0,17.57-2.87,129.75,129.75,0,0,0,15.95-4.82,98.3,98.3,0,0,0,13.61-6.17l5.82-3.14,4.72-3.24q7.88,1.88,16.24,3.09a216.94,216.94,0,0,0,33.32,1.74,278.45,278.45,0,0,0,142.49-48.14,279.07,279.07,0,0,0,32.58-25.6,265.9,265.9,0,0,0,29-30.63c8.84-11.07,17.23-22.67,24-35.25a254.47,254.47,0,0,0,28.48-79.62C1299.83,661.18,1299.73,633.57,1296.84,607.57ZM973.59,900.24c-3.86,1.75-8.34,3-12.94,4.45a66.78,66.78,0,0,1-7.25,1.81c-2.51.48-5,1.36-7.63,1.64l-8,1.23c-2.69.39-5.47.46-8.23.77a63.36,63.36,0,0,1-8.4.45c-2.82,0-5.65.16-8.48.06a165.52,165.52,0,0,1-16.88-1.18c-5.57-.49-11-1.62-16.24-2.47-5.14-1.38-10.29-2.18-14.93-3.75-3.4-1-6.6-2-9.66-3.11,1.21-.4,2.45-.76,3.64-1.19a120,120,0,0,0,25.25-12.6c7.53-4.8,13.45-11,18.41-16.78,2.27-3.15,4.61-6,6.22-9.12q1.29-2.28,2.51-4.46l1.86-4.49a72,72,0,0,0,3.71-12.68,71.27,71.27,0,0,0,3.72,12.68q.88,2.18,1.85,4.49,1.22,2.18,2.51,4.46c1.61,3.14,4,6,6.22,9.12,5,5.81,10.87,12,18.41,16.78A119.56,119.56,0,0,0,974.54,899c.41.15.84.26,1.25.41Zm298.92-253.77c-1,12.31-2.29,24.72-5,36.95a225.79,225.79,0,0,1-27,70.14,244.14,244.14,0,0,1-47.69,58.17c-18.51,16.81-39.47,30.28-60.76,41.1a309.89,309.89,0,0,1-64.48,24,238,238,0,0,1-60.87,6.78c-18.82-.9-35.91-4.31-49.42-10.94a83.33,83.33,0,0,1-17.61-11.39,68.42,68.42,0,0,1-11.78-13.67,76.5,76.5,0,0,1-9.9-23.09c0-.28,0-.59,0-.86-.29-6.45-.71-9.77-.71-9.77s-.26,1.37-.7,3.74c-.44-2.37-.7-3.74-.7-3.74s-.41,3.32-.71,9.77c0,.27,0,.58,0,.86a76.5,76.5,0,0,1-9.9,23.09,68.42,68.42,0,0,1-11.78,13.67,83.33,83.33,0,0,1-17.61,11.39c-13.51,6.63-30.61,10-49.42,10.94a237.93,237.93,0,0,1-60.87-6.78,310,310,0,0,1-64.49-24c-21.28-10.82-42.25-24.29-60.75-41.1a243.9,243.9,0,0,1-47.69-58.17,225.79,225.79,0,0,1-27-70.14c-2.69-12.23-4-24.64-5-36.95a284.2,284.2,0,0,1,.19-36.7c1.66-24.18,6.17-47.45,11.91-69.23a470.46,470.46,0,0,1,20.77-60.33c3.57-9.28,7.8-17.84,11.48-26.15,3.85-8.24,7.91-15.86,11.44-23.19,3.84-7.17,7.43-13.89,10.74-20.1s6.73-11.7,9.63-16.79c5.63-10.24,10.76-18,14-23.45l5-8.25-3-2.06-6,7.6c-3.86,5-9.8,12.06-16.73,21.71-1.87,2.64-3.92,5.45-6,8.39-7.5-28.31-13.92-56.94-18.71-85.71a443.7,443.7,0,0,1-5.34-45.34,190.25,190.25,0,0,1-.1-22.39,84.73,84.73,0,0,1,1.23-10.75,46.62,46.62,0,0,1,1.86-7.34c5-2.54,11.35-3.83,17.85-4.24a122,122,0,0,1,22.35.9A235.34,235.34,0,0,1,688,233.56a248.15,248.15,0,0,1,41.84,18.22,133.41,133.41,0,0,1,18.11,12,60.78,60.78,0,0,1,7.2,6.66,36.52,36.52,0,0,1,2.67,3.3c-3.73,2.17-7.34,4.4-10.78,6.52-5.12,3.55-10,6.73-14.29,10.09-17.33,13-26.52,24.23-26.52,24.23l.94.94a221.43,221.43,0,0,1,29.27-19.61c4.5-2.73,9.65-5.23,15-8,5.54-2.43,11.08-5.47,17.19-7.86l9.17-3.83,9.62-3.38c6.38-2.46,13.19-4.05,19.78-6.16s13.49-3.23,20.09-4.86c6.68-1.31,13.33-2.19,19.71-3.27,6.42-.86,12.67-1.34,18.56-2,5.87-.81,11.53-.53,16.69-.81,5.17,0,9.9-.6,14.11-.26l10.9.36,9.31.21h.18l9.31-.21,10.9-.36c4.2-.34,8.94.23,14.11.26,5.16.28,10.82,0,16.69.81,5.89.65,12.14,1.13,18.56,2,6.37,1.08,13,2,19.71,3.27,6.6,1.63,13.46,2.87,20.08,4.86s13.4,3.7,19.79,6.16l9.62,3.38,9.17,3.83c6.11,2.39,11.65,5.43,17.18,7.86,5.31,2.8,10.47,5.3,15,8A221.43,221.43,0,0,1,1126,315.5l.94-.94s-9.19-11.21-26.52-24.23c-4.26-3.36-9.18-6.54-14.29-10.09-3.45-2.11-7.06-4.35-10.78-6.52a34.87,34.87,0,0,1,2.67-3.3,62.26,62.26,0,0,1,7.19-6.66,134.67,134.67,0,0,1,18.11-12,248.6,248.6,0,0,1,41.85-18.22,235.17,235.17,0,0,1,44.7-10.51,122,122,0,0,1,22.34-.9c6.51.41,12.85,1.7,17.85,4.24a45.55,45.55,0,0,1,1.87,7.34,84.73,84.73,0,0,1,1.22,10.75,188.1,188.1,0,0,1-.09,22.39,446.53,446.53,0,0,1-5.34,45.34c-4.79,28.77-11.22,57.4-18.71,85.71-2.12-2.94-4.17-5.74-6-8.39-6.92-9.65-12.87-16.69-16.72-21.71l-6-7.6-3,2.06,5.05,8.25c3.22,5.41,8.35,13.21,14,23.45,2.89,5.09,6.27,10.59,9.63,16.79s6.9,12.93,10.74,20.1c3.53,7.33,7.58,14.95,11.44,23.19,3.68,8.31,7.91,16.87,11.48,26.15a468.94,468.94,0,0,1,20.76,60.33c5.74,21.78,10.25,45.05,11.91,69.23A282.42,282.42,0,0,1,1272.51,646.47Z"
    transform="translate(-172.23 -205)"></path>
  <path
    d="M791.22,538.92a26.31,26.31,0,1,0,26.31,26.31A26.31,26.31,0,0,0,791.22,538.92Zm0,35.34a9,9,0,1,1,9-9A9,9,0,0,1,791.22,574.26Z"
    transform="translate(-172.23 -205)"></path>
  <path
    d="M1036.52,538.92a26.31,26.31,0,1,0,26.31,26.31A26.31,26.31,0,0,0,1036.52,538.92Zm0,35.34a9,9,0,1,1,9-9A9,9,0,0,1,1036.52,574.26Z"
    transform="translate(-172.23 -205)"></path>
</svg>