<?xml version="1.0" encoding="UTF-8" standalone="no"?>
<!DOCTYPE svg PUBLIC "-//W3C//DTD SVG 1.1//EN" "http://www.w3.org/Graphics/SVG/1.1/DTD/svg11.dtd">
<svg version="1.1" xmlns="http://www.w3.org/2000/svg" xmlns:xlink="http://www.w3.org/1999/xlink" preserveAspectRatio="xMidYMid meet" viewBox="0 0 640 640" width="640" height="640"><defs><path d="M505.5 177.55C524.29 94.58 515.94 28.57 479.15 7.44C470.67 2.48 460.76 0.13 449.93 0.13C449.93 3.04 449.93 26.31 449.93 29.22C455.93 29.22 460.76 30.4 464.8 32.61C482.54 42.79 490.24 81.53 484.24 131.37C482.8 143.63 480.46 156.54 477.59 169.72C452.02 163.46 424.1 158.63 394.75 155.5C377.14 131.37 358.87 109.45 340.48 90.27C383.01 50.75 422.93 29.09 450.06 29.09C450.06 26.18 450.06 2.91 450.06 0C414.19 0 367.22 25.57 319.74 69.92C272.25 25.83 225.29 0.52 189.42 0.52C189.42 3.43 189.42 26.7 189.42 29.61C216.42 29.61 256.47 51.14 299 90.4C280.73 109.58 262.47 131.37 245.12 155.5C215.64 158.63 187.72 163.46 162.15 169.85C159.15 156.8 156.93 144.15 155.37 132.02C149.24 82.19 156.8 43.44 174.42 33.14C178.33 30.79 183.42 29.74 189.42 29.74C189.42 26.83 189.42 3.56 189.42 0.65C178.46 0.65 168.54 3 159.93 7.96C123.28 29.09 115.06 94.97 133.97 177.68C52.83 202.72 0 242.77 0 285.04C0 327.44 53.09 367.62 134.5 392.53C115.71 475.5 124.06 541.51 160.85 562.64C169.33 567.6 179.24 569.95 190.2 569.95C226.07 569.95 273.04 544.38 320.52 500.03C368.01 544.12 414.97 569.43 450.84 569.43C461.8 569.43 471.72 567.08 480.33 562.12C516.98 540.99 525.2 475.11 506.29 392.4C587.17 367.49 640 327.31 640 285.04C640 242.64 586.91 202.46 505.5 177.55ZM452.54 249.56C447.19 239.12 441.58 228.68 435.45 218.25C429.45 207.81 423.06 197.64 416.67 187.72C435.19 190.46 453.06 193.85 470.15 198.03C465.32 214.86 459.32 232.21 452.54 249.56ZM378.96 386.79C359.53 388.49 339.83 389.4 320 389.4C300.3 389.4 280.6 388.49 261.3 386.92C250.47 371.4 239.9 354.83 229.73 337.35C219.81 320.26 210.81 302.91 202.59 285.43C210.68 267.95 219.81 250.47 229.6 233.38C239.77 215.77 250.21 199.07 261.04 183.55C280.47 181.85 300.17 180.94 320 180.94C339.7 180.94 359.4 181.85 378.7 183.42C389.53 198.94 400.1 215.51 410.27 232.99C420.19 250.08 429.19 267.43 437.41 284.91C429.19 302.39 420.19 319.87 410.4 336.96C400.23 354.57 389.79 371.27 378.96 386.79ZM470.54 371.92C453.45 376.1 435.45 379.62 416.8 382.36C423.19 372.31 429.58 362.01 435.58 351.44C441.58 341 447.19 330.44 452.54 320C459.58 337.48 465.58 354.96 470.54 371.92ZM284 417.45C295.74 417.97 307.74 418.36 319.87 418.36C332.13 418.36 344.26 418.1 356.14 417.45C344.39 432.71 332.26 446.67 320.26 459.2C308.13 446.67 296 432.71 284 417.45ZM169.72 372.05C174.55 355.22 180.55 337.87 187.33 320.52C192.68 330.96 198.29 341.4 204.42 351.83C210.55 362.27 216.81 372.44 223.2 382.36C204.68 379.62 186.81 376.23 169.72 372.05ZM355.87 152.63C344.13 152.11 332.13 151.72 320 151.72C307.74 151.72 295.61 151.98 283.73 152.63C295.47 137.37 307.61 123.41 319.61 110.89C331.74 123.41 343.87 137.37 355.87 152.63ZM204.29 218.64C198.29 229.08 192.68 239.51 187.33 249.95C180.29 232.47 174.28 214.99 169.33 198.03C186.42 193.98 204.42 190.46 223.07 187.72C216.68 197.77 210.29 208.07 204.29 218.64ZM28.96 285.04C28.96 264.56 58.83 238.6 105.01 219.03C116.23 214.2 128.5 209.9 141.15 205.86C148.59 231.42 158.37 258.04 170.5 285.3C158.5 312.44 148.85 338.92 141.54 364.36C128.63 360.31 116.36 355.88 105.01 351.05C58.83 331.35 28.96 305.52 28.96 285.04ZM155.76 438.71C157.2 426.45 159.54 413.54 162.41 400.36C187.98 406.62 215.9 411.45 245.25 414.58C262.86 438.71 281.13 460.63 299.52 479.81C256.99 519.33 217.07 540.99 189.94 540.99C184.07 540.86 179.11 539.68 175.2 537.47C157.46 527.29 149.76 488.55 155.76 438.71ZM465.58 536.95C461.67 539.29 456.58 540.34 450.58 540.34C423.58 540.34 383.53 518.81 341 479.55C359.27 460.37 377.53 438.58 394.88 414.45C424.36 411.32 452.28 406.49 477.85 400.1C480.85 413.28 483.2 425.93 484.63 438.06C490.76 487.89 483.2 526.64 465.58 536.95ZM498.72 364.23C491.28 338.66 481.5 312.04 469.37 284.78C481.37 257.65 491.02 231.16 498.33 205.72C511.24 209.77 523.51 214.2 534.99 219.03C581.17 238.73 611.04 264.56 611.04 285.04C610.91 305.52 581.04 331.48 534.86 351.05C523.64 355.88 511.37 360.18 498.72 364.23Z" id="b1ksLzu6R"></path><path d="M319.87 225.42C286.94 225.42 260.25 252.11 260.25 285.04C260.25 317.97 286.94 344.66 319.87 344.66C352.79 344.66 379.49 317.97 379.49 285.04C379.49 252.11 352.79 225.42 319.87 225.42Z" id="l1mNGag6e"></path><path d="" id="a4jdu96Aar"></path></defs><g><g><g><g><filter id="shadow324990" x="-9" y="-9" width="659" height="588.95" filterUnits="userSpaceOnUse" primitiveUnits="userSpaceOnUse"><feFlood></feFlood><feComposite in2="SourceAlpha" operator="in"></feComposite><feGaussianBlur stdDeviation="1"></feGaussianBlur><feOffset dx="1" dy="1" result="afterOffset"></feOffset><feFlood flood-color="#000000" flood-opacity="0.5"></feFlood><feComposite in2="afterOffset" operator="in"></feComposite><feMorphology operator="dilate" radius="1"></feMorphology><feComposite in2="SourceAlpha" operator="out"></feComposite></filter><path d="M505.5 177.55C524.29 94.58 515.94 28.57 479.15 7.44C470.67 2.48 460.76 0.13 449.93 0.13C449.93 3.04 449.93 26.31 449.93 29.22C455.93 29.22 460.76 30.4 464.8 32.61C482.54 42.79 490.24 81.53 484.24 131.37C482.8 143.63 480.46 156.54 477.59 169.72C452.02 163.46 424.1 158.63 394.75 155.5C377.14 131.37 358.87 109.45 340.48 90.27C383.01 50.75 422.93 29.09 450.06 29.09C450.06 26.18 450.06 2.91 450.06 0C414.19 0 367.22 25.57 319.74 69.92C272.25 25.83 225.29 0.52 189.42 0.52C189.42 3.43 189.42 26.7 189.42 29.61C216.42 29.61 256.47 51.14 299 90.4C280.73 109.58 262.47 131.37 245.12 155.5C215.64 158.63 187.72 163.46 162.15 169.85C159.15 156.8 156.93 144.15 155.37 132.02C149.24 82.19 156.8 43.44 174.42 33.14C178.33 30.79 183.42 29.74 189.42 29.74C189.42 26.83 189.42 3.56 189.42 0.65C178.46 0.65 168.54 3 159.93 7.96C123.28 29.09 115.06 94.97 133.97 177.68C52.83 202.72 0 242.77 0 285.04C0 327.44 53.09 367.62 134.5 392.53C115.71 475.5 124.06 541.51 160.85 562.64C169.33 567.6 179.24 569.95 190.2 569.95C226.07 569.95 273.04 544.38 320.52 500.03C368.01 544.12 414.97 569.43 450.84 569.43C461.8 569.43 471.72 567.08 480.33 562.12C516.98 540.99 525.2 475.11 506.29 392.4C587.17 367.49 640 327.31 640 285.04C640 242.64 586.91 202.46 505.5 177.55ZM452.54 249.56C447.19 239.12 441.58 228.68 435.45 218.25C429.45 207.81 423.06 197.64 416.67 187.72C435.19 190.46 453.06 193.85 470.15 198.03C465.32 214.86 459.32 232.21 452.54 249.56ZM378.96 386.79C359.53 388.49 339.83 389.4 320 389.4C300.3 389.4 280.6 388.49 261.3 386.92C250.47 371.4 239.9 354.83 229.73 337.35C219.81 320.26 210.81 302.91 202.59 285.43C210.68 267.95 219.81 250.47 229.6 233.38C239.77 215.77 250.21 199.07 261.04 183.55C280.47 181.85 300.17 180.94 320 180.94C339.7 180.94 359.4 181.85 378.7 183.42C389.53 198.94 400.1 215.51 410.27 232.99C420.19 250.08 429.19 267.43 437.41 284.91C429.19 302.39 420.19 319.87 410.4 336.96C400.23 354.57 389.79 371.27 378.96 386.79ZM470.54 371.92C453.45 376.1 435.45 379.62 416.8 382.36C423.19 372.31 429.58 362.01 435.58 351.44C441.58 341 447.19 330.44 452.54 320C459.58 337.48 465.58 354.96 470.54 371.92ZM284 417.45C295.74 417.97 307.74 418.36 319.87 418.36C332.13 418.36 344.26 418.1 356.14 417.45C344.39 432.71 332.26 446.67 320.26 459.2C308.13 446.67 296 432.71 284 417.45ZM169.72 372.05C174.55 355.22 180.55 337.87 187.33 320.52C192.68 330.96 198.29 341.4 204.42 351.83C210.55 362.27 216.81 372.44 223.2 382.36C204.68 379.62 186.81 376.23 169.72 372.05ZM355.87 152.63C344.13 152.11 332.13 151.72 320 151.72C307.74 151.72 295.61 151.98 283.73 152.63C295.47 137.37 307.61 123.41 319.61 110.89C331.74 123.41 343.87 137.37 355.87 152.63ZM204.29 218.64C198.29 229.08 192.68 239.51 187.33 249.95C180.29 232.47 174.28 214.99 169.33 198.03C186.42 193.98 204.42 190.46 223.07 187.72C216.68 197.77 210.29 208.07 204.29 218.64ZM28.96 285.04C28.96 264.56 58.83 238.6 105.01 219.03C116.23 214.2 128.5 209.9 141.15 205.86C148.59 231.42 158.37 258.04 170.5 285.3C158.5 312.44 148.85 338.92 141.54 364.36C128.63 360.31 116.36 355.88 105.01 351.05C58.83 331.35 28.96 305.52 28.96 285.04ZM155.76 438.71C157.2 426.45 159.54 413.54 162.41 400.36C187.98 406.62 215.9 411.45 245.25 414.58C262.86 438.71 281.13 460.63 299.52 479.81C256.99 519.33 217.07 540.99 189.94 540.99C184.07 540.86 179.11 539.68 175.2 537.47C157.46 527.29 149.76 488.55 155.76 438.71ZM465.58 536.95C461.67 539.29 456.58 540.34 450.58 540.34C423.58 540.34 383.53 518.81 341 479.55C359.27 460.37 377.53 438.58 394.88 414.45C424.36 411.32 452.28 406.49 477.85 400.1C480.85 413.28 483.2 425.93 484.63 438.06C490.76 487.89 483.2 526.64 465.58 536.95ZM498.72 364.23C491.28 338.66 481.5 312.04 469.37 284.78C481.37 257.65 491.02 231.16 498.33 205.72C511.24 209.77 523.51 214.2 534.99 219.03C581.17 238.73 611.04 264.56 611.04 285.04C610.91 305.52 581.04 331.48 534.86 351.05C523.64 355.88 511.37 360.18 498.72 364.23Z" id="c1ncMfiknj" fill="white" fill-opacity="1" filter="url(#shadow324990)"></path></g><use xlink:href="#b1ksLzu6R" opacity="1" fill="#61dafb" fill-opacity="1"></use><g><use xlink:href="#b1ksLzu6R" opacity="1" fill-opacity="0" stroke="#000000" stroke-width="1" stroke-opacity="0"></use></g><g><filter id="shadow6441601" x="-9" y="-9" width="659" height="588.95" filterUnits="userSpaceOnUse" primitiveUnits="userSpaceOnUse"><feFlood></feFlood><feComposite in2="SourceAlpha" operator="out"></feComposite><feGaussianBlur stdDeviation="1"></feGaussianBlur><feOffset dx="1" dy="1" result="afterOffset"></feOffset><feFlood flood-color="#000000" flood-opacity="0.5"></feFlood><feComposite in2="afterOffset" operator="in"></feComposite><feMorphology operator="dilate" radius="1"></feMorphology><feComposite in2="SourceAlpha" operator="in"></feComposite></filter><path d="M505.5 177.55C524.29 94.58 515.94 28.57 479.15 7.44C470.67 2.48 460.76 0.13 449.93 0.13C449.93 3.04 449.93 26.31 449.93 29.22C455.93 29.22 460.76 30.4 464.8 32.61C482.54 42.79 490.24 81.53 484.24 131.37C482.8 143.63 480.46 156.54 477.59 169.72C452.02 163.46 424.1 158.63 394.75 155.5C377.14 131.37 358.87 109.45 340.48 90.27C383.01 50.75 422.93 29.09 450.06 29.09C450.06 26.18 450.06 2.91 450.06 0C414.19 0 367.22 25.57 319.74 69.92C272.25 25.83 225.29 0.52 189.42 0.52C189.42 3.43 189.42 26.7 189.42 29.61C216.42 29.61 256.47 51.14 299 90.4C280.73 109.58 262.47 131.37 245.12 155.5C215.64 158.63 187.72 163.46 162.15 169.85C159.15 156.8 156.93 144.15 155.37 132.02C149.24 82.19 156.8 43.44 174.42 33.14C178.33 30.79 183.42 29.74 189.42 29.74C189.42 26.83 189.42 3.56 189.42 0.65C178.46 0.65 168.54 3 159.93 7.96C123.28 29.09 115.06 94.97 133.97 177.68C52.83 202.72 0 242.77 0 285.04C0 327.44 53.09 367.62 134.5 392.53C115.71 475.5 124.06 541.51 160.85 562.64C169.33 567.6 179.24 569.95 190.2 569.95C226.07 569.95 273.04 544.38 320.52 500.03C368.01 544.12 414.97 569.43 450.84 569.43C461.8 569.43 471.72 567.08 480.33 562.12C516.98 540.99 525.2 475.11 506.29 392.4C587.17 367.49 640 327.31 640 285.04C640 242.64 586.91 202.46 505.5 177.55ZM452.54 249.56C447.19 239.12 441.58 228.68 435.45 218.25C429.45 207.81 423.06 197.64 416.67 187.72C435.19 190.46 453.06 193.85 470.15 198.03C465.32 214.86 459.32 232.21 452.54 249.56ZM378.96 386.79C359.53 388.49 339.83 389.4 320 389.4C300.3 389.4 280.6 388.49 261.3 386.92C250.47 371.4 239.9 354.83 229.73 337.35C219.81 320.26 210.81 302.91 202.59 285.43C210.68 267.95 219.81 250.47 229.6 233.38C239.77 215.77 250.21 199.07 261.04 183.55C280.47 181.85 300.17 180.94 320 180.94C339.7 180.94 359.4 181.85 378.7 183.42C389.53 198.94 400.1 215.51 410.27 232.99C420.19 250.08 429.19 267.43 437.41 284.91C429.19 302.39 420.19 319.87 410.4 336.96C400.23 354.57 389.79 371.27 378.96 386.79ZM470.54 371.92C453.45 376.1 435.45 379.62 416.8 382.36C423.19 372.31 429.58 362.01 435.58 351.44C441.58 341 447.19 330.44 452.54 320C459.58 337.48 465.58 354.96 470.54 371.92ZM284 417.45C295.74 417.97 307.74 418.36 319.87 418.36C332.13 418.36 344.26 418.1 356.14 417.45C344.39 432.71 332.26 446.67 320.26 459.2C308.13 446.67 296 432.71 284 417.45ZM169.72 372.05C174.55 355.22 180.55 337.87 187.33 320.52C192.68 330.96 198.29 341.4 204.42 351.83C210.55 362.27 216.81 372.44 223.2 382.36C204.68 379.62 186.81 376.23 169.72 372.05ZM355.87 152.63C344.13 152.11 332.13 151.72 320 151.72C307.74 151.72 295.61 151.98 283.73 152.63C295.47 137.37 307.61 123.41 319.61 110.89C331.74 123.41 343.87 137.37 355.87 152.63ZM204.29 218.64C198.29 229.08 192.68 239.51 187.33 249.95C180.29 232.47 174.28 214.99 169.33 198.03C186.42 193.98 204.42 190.46 223.07 187.72C216.68 197.77 210.29 208.07 204.29 218.64ZM28.96 285.04C28.96 264.56 58.83 238.6 105.01 219.03C116.23 214.2 128.5 209.9 141.15 205.86C148.59 231.42 158.37 258.04 170.5 285.3C158.5 312.44 148.85 338.92 141.54 364.36C128.63 360.31 116.36 355.88 105.01 351.05C58.83 331.35 28.96 305.52 28.96 285.04ZM155.76 438.71C157.2 426.45 159.54 413.54 162.41 400.36C187.98 406.62 215.9 411.45 245.25 414.58C262.86 438.71 281.13 460.63 299.52 479.81C256.99 519.33 217.07 540.99 189.94 540.99C184.07 540.86 179.11 539.68 175.2 537.47C157.46 527.29 149.76 488.55 155.76 438.71ZM465.58 536.95C461.67 539.29 456.58 540.34 450.58 540.34C423.58 540.34 383.53 518.81 341 479.55C359.27 460.37 377.53 438.58 394.88 414.45C424.36 411.32 452.28 406.49 477.85 400.1C480.85 413.28 483.2 425.93 484.63 438.06C490.76 487.89 483.2 526.64 465.58 536.95ZM498.72 364.23C491.28 338.66 481.5 312.04 469.37 284.78C481.37 257.65 491.02 231.16 498.33 205.72C511.24 209.77 523.51 214.2 534.99 219.03C581.17 238.73 611.04 264.56 611.04 285.04C610.91 305.52 581.04 331.48 534.86 351.05C523.64 355.88 511.37 360.18 498.72 364.23Z" id="b2eXM67hC" fill="white" fill-opacity="1" filter="url(#shadow6441601)"></path></g></g><g><g><filter id="shadow3267331" x="251.25" y="216.42" width="138.23" height="138.23" filterUnits="userSpaceOnUse" primitiveUnits="userSpaceOnUse"><feFlood></feFlood><feComposite in2="SourceAlpha" operator="in"></feComposite><feGaussianBlur stdDeviation="1"></feGaussianBlur><feOffset dx="1" dy="1" result="afterOffset"></feOffset><feFlood flood-color="#000000" flood-opacity="0.5"></feFlood><feComposite in2="afterOffset" operator="in"></feComposite><feMorphology operator="dilate" radius="1"></feMorphology><feComposite in2="SourceAlpha" operator="out"></feComposite></filter><path d="M319.87 225.42C286.94 225.42 260.25 252.11 260.25 285.04C260.25 317.97 286.94 344.66 319.87 344.66C352.79 344.66 379.49 317.97 379.49 285.04C379.49 252.11 352.79 225.42 319.87 225.42Z" id="fauriRStr" fill="white" fill-opacity="1" filter="url(#shadow3267331)"></path></g><use xlink:href="#l1mNGag6e" opacity="1" fill="#61dafb" fill-opacity="1"></use><g><use xlink:href="#l1mNGag6e" opacity="1" fill-opacity="0" stroke="#000000" stroke-width="1" stroke-opacity="0"></use></g><g><filter id="shadow10012339" x="251.25" y="216.42" width="138.23" height="138.23" filterUnits="userSpaceOnUse" primitiveUnits="userSpaceOnUse"><feFlood></feFlood><feComposite in2="SourceAlpha" operator="out"></feComposite><feGaussianBlur stdDeviation="1"></feGaussianBlur><feOffset dx="1" dy="1" result="afterOffset"></feOffset><feFlood flood-color="#000000" flood-opacity="0.5"></feFlood><feComposite in2="afterOffset" operator="in"></feComposite><feMorphology operator="dilate" radius="1"></feMorphology><feComposite in2="SourceAlpha" operator="in"></feComposite></filter><path d="M319.87 225.42C286.94 225.42 260.25 252.11 260.25 285.04C260.25 317.97 286.94 344.66 319.87 344.66C352.79 344.66 379.49 317.97 379.49 285.04C379.49 252.11 352.79 225.42 319.87 225.42Z" id="bOmshjKT7" fill="white" fill-opacity="1" filter="url(#shadow10012339)"></path></g></g><g><g><filter id="shadow3465293" x="440.8" y="-8.87" width="19" height="19" filterUnits="userSpaceOnUse" primitiveUnits="userSpaceOnUse"><feFlood></feFlood><feComposite in2="SourceAlpha" operator="in"></feComposite><feGaussianBlur stdDeviation="1"></feGaussianBlur><feOffset dx="1" dy="1" result="afterOffset"></feOffset><feFlood flood-color="#000000" flood-opacity="0.5"></feFlood><feComposite in2="afterOffset" operator="in"></feComposite><feMorphology operator="dilate" radius="1"></feMorphology><feComposite in2="SourceAlpha" operator="out"></feComposite></filter><path d="" id="b8n6J9nvx" fill="white" fill-opacity="1" filter="url(#shadow3465293)"></path></g><use xlink:href="#a4jdu96Aar" opacity="1" fill="#61dafb" fill-opacity="1"></use><g><use xlink:href="#a4jdu96Aar" opacity="1" fill-opacity="0" stroke="#000000" stroke-width="1" stroke-opacity="0"></use></g><g><filter id="shadow11528626" x="440.8" y="-8.87" width="19" height="19" filterUnits="userSpaceOnUse" primitiveUnits="userSpaceOnUse"><feFlood></feFlood><feComposite in2="SourceAlpha" operator="out"></feComposite><feGaussianBlur stdDeviation="1"></feGaussianBlur><feOffset dx="1" dy="1" result="afterOffset"></feOffset><feFlood flood-color="#000000" flood-opacity="0.5"></feFlood><feComposite in2="afterOffset" operator="in"></feComposite><feMorphology operator="dilate" radius="1"></feMorphology><feComposite in2="SourceAlpha" operator="in"></feComposite></filter><path d="" id="b1T3TFP0x2" fill="white" fill-opacity="1" filter="url(#shadow11528626)"></path></g></g></g></g></svg>